<svg xmlns="http://www.w3.org/2000/svg" width="39.062" height="39.061" viewBox="0 0 39.062 39.061">
  <g id="Group_711" data-name="Group 711" transform="translate(0.5 0.5)">
    <path id="Path_106" data-name="Path 106" d="M54.583,166.566h0a19.031,19.031,0,0,1-19.031-19.03h0a19.031,19.031,0,0,1,19.031-19.031h0a19.031,19.031,0,0,1,19.031,19.031h0A19.031,19.031,0,0,1,54.583,166.566Z" transform="translate(-35.552 -128.505)" fill="none" stroke="#fff" stroke-width="1"/>
    <path id="Path_107" data-name="Path 107" d="M44.444,153.907a11.833,11.833,0,0,0,18.2-10.507,8.433,8.433,0,0,0,2.075-2.154,8.3,8.3,0,0,1-2.389.655,4.166,4.166,0,0,0,1.829-2.3,8.347,8.347,0,0,1-2.641,1.01,4.164,4.164,0,0,0-7.09,3.8,11.807,11.807,0,0,1-8.575-4.347,4.165,4.165,0,0,0,1.287,5.555,4.147,4.147,0,0,1-1.885-.521,4.166,4.166,0,0,0,3.337,4.133,4.165,4.165,0,0,1-1.878.07,4.162,4.162,0,0,0,3.886,2.89A8.366,8.366,0,0,1,44.444,153.907Z" transform="translate(-35.552 -128.505)" fill="#fff"/>
  </g>
</svg>
