<svg xmlns="http://www.w3.org/2000/svg" width="2079" height="756" viewBox="0 0 2079 756">
  <g id="Group_41" data-name="Group 41" transform="translate(144.5 -1668)">
    <g id="Group_9522" data-name="Group 9522">
      <g id="Patterns" transform="translate(948.805 1748.544)" opacity="0.095" style="mix-blend-mode: luminosity;isolation: isolate">
        <g id="Ngaruroro" transform="translate(-53.805 -80.544)">
          <g id="Group_40" data-name="Group 40">
            <g id="Opacity-70" opacity="0.7">
              <rect id="Shape" width="94.5" height="94.5" fill="#37abb7"/>
              <rect id="Shape-2" data-name="Shape" width="94.5" height="94.5" transform="translate(472.5)" fill="#37abb7"/>
              <rect id="Shape-3" data-name="Shape" width="94.5" height="94.5" transform="translate(189 94.5)" fill="#37abb7"/>
              <rect id="Shape-4" data-name="Shape" width="94.5" height="94.5" transform="translate(567 189)" fill="#37abb7"/>
              <rect id="Shape-5" data-name="Shape" width="94.5" height="94.5" transform="translate(850.5 283.5)" fill="#37abb7"/>
              <rect id="Shape-6" data-name="Shape" width="94.5" height="94.5" transform="translate(0 378)" fill="#37abb7"/>
              <rect id="Shape-7" data-name="Shape" width="94.5" height="94.5" transform="translate(378 472.5)" fill="#37abb7"/>
              <rect id="Shape-8" data-name="Shape" width="94.5" height="94.5" transform="translate(378 567)" fill="#37abb7"/>
              <rect id="Shape-9" data-name="Shape" width="94.5" height="94.5" transform="translate(94.5 661.5)" fill="#37abb7"/>
              <rect id="Shape-10" data-name="Shape" width="94.5" height="94.5" transform="translate(850.5 661.5)" fill="#37abb7"/>
            </g>
            <g id="Opacity-50" transform="translate(0 94.5)" opacity="0.5">
              <rect id="Shape-11" data-name="Shape" width="94.5" height="94.5" transform="translate(94.5)" fill="#37abb7"/>
              <rect id="Shape-12" data-name="Shape" width="94.5" height="94.5" transform="translate(0 94.5)" fill="#37abb7"/>
              <rect id="Shape-13" data-name="Shape" width="94.5" height="94.5" transform="translate(472.5 94.5)" fill="#37abb7"/>
              <rect id="Shape-14" data-name="Shape" width="94.5" height="94.5" transform="translate(850.5 94.5)" fill="#37abb7"/>
              <rect id="Shape-15" data-name="Shape" width="94.5" height="94.5" transform="translate(756 189)" fill="#37abb7"/>
              <rect id="Shape-16" data-name="Shape" width="94.5" height="94.5" transform="translate(283.5 283.5)" fill="#37abb7"/>
              <rect id="Shape-17" data-name="Shape" width="94.5" height="94.5" transform="translate(378 283.5)" fill="#37abb7"/>
              <rect id="Shape-18" data-name="Shape" width="94.5" height="94.5" transform="translate(189 378)" fill="#37abb7"/>
              <rect id="Shape-19" data-name="Shape" width="94.5" height="94.5" transform="translate(283.5 378)" fill="#37abb7"/>
              <rect id="Shape-20" data-name="Shape" width="94.5" height="94.5" transform="translate(850.5 472.5)" fill="#37abb7"/>
              <rect id="Shape-21" data-name="Shape" width="94.5" height="94.5" transform="translate(283.5 567)" fill="#37abb7"/>
              <rect id="Shape-22" data-name="Shape" width="94.5" height="94.5" transform="translate(661.5 567)" fill="#37abb7"/>
            </g>
            <g id="Opacity-40" transform="translate(94.5)" opacity="0.4">
              <rect id="Shape-23" data-name="Shape" width="94.5" height="94.5" transform="translate(283.5)" fill="#37abb7"/>
              <rect id="Shape-24" data-name="Shape" width="94.5" height="94.5" transform="translate(567)" fill="#37abb7"/>
              <rect id="Shape-25" data-name="Shape" width="94.5" height="94.5" transform="translate(189 189)" fill="#37abb7"/>
              <rect id="Shape-26" data-name="Shape" width="94.5" height="94.5" transform="translate(0 283.5)" fill="#37abb7"/>
              <rect id="Shape-27" data-name="Shape" width="94.5" height="94.5" transform="translate(567 283.5)" fill="#37abb7"/>
              <rect id="Shape-28" data-name="Shape" width="94.5" height="94.5" transform="translate(378 378)" fill="#37abb7"/>
              <rect id="Shape-29" data-name="Shape" width="94.5" height="94.5" transform="translate(472.5 378)" fill="#37abb7"/>
              <rect id="Shape-30" data-name="Shape" width="94.5" height="94.5" transform="translate(756 472.5)" fill="#37abb7"/>
              <rect id="Shape-31" data-name="Shape" width="94.5" height="94.5" transform="translate(0 567)" fill="#37abb7"/>
              <rect id="Shape-32" data-name="Shape" width="94.5" height="94.5" transform="translate(378 567)" fill="#37abb7"/>
            </g>
            <g id="Opacity-20" transform="translate(94.5)" opacity="0.2">
              <rect id="Shape-33" data-name="Shape" width="94.5" height="94.5" transform="translate(94.5)" fill="#37abb7"/>
              <rect id="Shape-34" data-name="Shape" width="94.5" height="94.5" transform="translate(189 94.5)" fill="#37abb7"/>
              <rect id="Shape-35" data-name="Shape" width="94.5" height="94.5" transform="translate(661.5 94.5)" fill="#37abb7"/>
              <rect id="Shape-36" data-name="Shape" width="94.5" height="94.5" transform="translate(94.5 189)" fill="#37abb7"/>
              <rect id="Shape-37" data-name="Shape" width="94.5" height="94.5" transform="translate(283.5 189)" fill="#37abb7"/>
              <rect id="Shape-38" data-name="Shape" width="94.5" height="94.5" transform="translate(472.5 283.5)" fill="#37abb7"/>
              <rect id="Shape-39" data-name="Shape" width="94.5" height="94.5" transform="translate(0 378)" fill="#37abb7"/>
              <rect id="Shape-40" data-name="Shape" width="94.5" height="94.5" transform="translate(472.5 567)" fill="#37abb7"/>
            </g>
            <g id="Color-1" transform="translate(0 94.5)">
              <rect id="Shape-41" data-name="Shape" width="94.5" height="94.5" transform="translate(661.5)" fill="#c4dd76"/>
              <rect id="Shape-42" data-name="Shape" width="94.5" height="94.5" transform="translate(850.5)" fill="#c4dd76"/>
              <rect id="Shape-43" data-name="Shape" width="94.5" height="94.5" transform="translate(94.5 94.5)" fill="#c4dd76"/>
              <rect id="Shape-44" data-name="Shape" width="94.5" height="94.5" transform="translate(850.5 283.5)" fill="#c4dd76"/>
              <rect id="Shape-45" data-name="Shape" width="94.5" height="94.5" transform="translate(0 378)" fill="#c4dd76"/>
              <rect id="Shape-46" data-name="Shape" width="94.5" height="94.5" transform="translate(567 378)" fill="#c4dd76"/>
              <rect id="Shape-47" data-name="Shape" width="94.5" height="94.5" transform="translate(661.5 378)" fill="#c4dd76"/>
              <rect id="Shape-48" data-name="Shape" width="94.5" height="94.5" transform="translate(567 567)" fill="#c4dd76"/>
              <rect id="Shape-49" data-name="Shape" width="94.5" height="94.5" transform="translate(756 567)" fill="#c4dd76"/>
            </g>
            <rect id="Shape-50" data-name="Shape" width="94.5" height="94.5" transform="translate(945 189)" fill="#37abb7"/>
            <rect id="Shape-51" data-name="Shape" width="94.5" height="94.5" transform="translate(945 567)" fill="#37abb7"/>
            <rect id="Shape-52" data-name="Shape" width="94.5" height="94.5" transform="translate(945 94.5)" fill="#37abb7"/>
            <rect id="Shape-53" data-name="Shape" width="94.5" height="94.5" transform="translate(945 472.5)" fill="#37abb7"/>
            <rect id="Shape-54" data-name="Shape" width="94.5" height="94.5" transform="translate(945 378)" fill="#37abb7"/>
            <rect id="Shape-55" data-name="Shape" width="94.5" height="94.5" transform="translate(850.5)" fill="#37abb7"/>
            <rect id="Shape-56" data-name="Shape" width="94.5" height="94.5" transform="translate(945)" fill="#c4dd76"/>
            <rect id="Shape-57" data-name="Shape" width="94.5" height="94.5" transform="translate(945 283.5)" fill="#c4dd76"/>
            <rect id="Shape-58" data-name="Shape" width="94.5" height="94.5" transform="translate(850.5 567)" fill="#c4dd76"/>
          </g>
        </g>
      </g>
      <g id="Patterns-2" data-name="Patterns" transform="translate(-90.695 1748.544)" opacity="0.095" style="mix-blend-mode: luminosity;isolation: isolate">
        <g id="Ngaruroro-2" data-name="Ngaruroro" transform="translate(-53.805 -80.544)">
          <g id="Group_40-2" data-name="Group 40">
            <g id="Opacity-70-2" data-name="Opacity-70" opacity="0.7">
              <rect id="Shape-59" data-name="Shape" width="94.5" height="94.5" fill="#37abb7"/>
              <rect id="Shape-60" data-name="Shape" width="94.5" height="94.5" transform="translate(472.5)" fill="#37abb7"/>
              <rect id="Shape-61" data-name="Shape" width="94.5" height="94.5" transform="translate(189 94.5)" fill="#37abb7"/>
              <rect id="Shape-62" data-name="Shape" width="94.5" height="94.5" transform="translate(567 189)" fill="#37abb7"/>
              <rect id="Shape-63" data-name="Shape" width="94.5" height="94.5" transform="translate(850.5 283.5)" fill="#37abb7"/>
              <rect id="Shape-64" data-name="Shape" width="94.5" height="94.5" transform="translate(0 378)" fill="#37abb7"/>
              <rect id="Shape-65" data-name="Shape" width="94.5" height="94.5" transform="translate(378 472.5)" fill="#37abb7"/>
              <rect id="Shape-66" data-name="Shape" width="94.5" height="94.5" transform="translate(378 567)" fill="#37abb7"/>
              <rect id="Shape-67" data-name="Shape" width="94.5" height="94.5" transform="translate(94.5 661.5)" fill="#37abb7"/>
              <rect id="Shape-68" data-name="Shape" width="94.5" height="94.5" transform="translate(850.5 661.5)" fill="#37abb7"/>
            </g>
            <g id="Opacity-50-2" data-name="Opacity-50" transform="translate(0 94.5)" opacity="0.5">
              <rect id="Shape-69" data-name="Shape" width="94.5" height="94.5" transform="translate(94.5)" fill="#37abb7"/>
              <rect id="Shape-70" data-name="Shape" width="94.5" height="94.5" transform="translate(0 94.5)" fill="#37abb7"/>
              <rect id="Shape-71" data-name="Shape" width="94.5" height="94.5" transform="translate(472.5 94.5)" fill="#37abb7"/>
              <rect id="Shape-72" data-name="Shape" width="94.5" height="94.5" transform="translate(850.5 94.5)" fill="#37abb7"/>
              <rect id="Shape-73" data-name="Shape" width="94.5" height="94.5" transform="translate(756 189)" fill="#37abb7"/>
              <rect id="Shape-74" data-name="Shape" width="94.5" height="94.5" transform="translate(283.5 283.5)" fill="#37abb7"/>
              <rect id="Shape-75" data-name="Shape" width="94.5" height="94.5" transform="translate(378 283.5)" fill="#37abb7"/>
              <rect id="Shape-76" data-name="Shape" width="94.5" height="94.5" transform="translate(189 378)" fill="#37abb7"/>
              <rect id="Shape-77" data-name="Shape" width="94.5" height="94.5" transform="translate(283.5 378)" fill="#37abb7"/>
              <rect id="Shape-78" data-name="Shape" width="94.5" height="94.5" transform="translate(850.5 472.5)" fill="#37abb7"/>
              <rect id="Shape-79" data-name="Shape" width="94.5" height="94.5" transform="translate(283.5 567)" fill="#37abb7"/>
              <rect id="Shape-80" data-name="Shape" width="94.5" height="94.5" transform="translate(661.5 567)" fill="#37abb7"/>
            </g>
            <g id="Opacity-40-2" data-name="Opacity-40" transform="translate(94.5)" opacity="0.4">
              <rect id="Shape-81" data-name="Shape" width="94.5" height="94.5" transform="translate(283.5)" fill="#37abb7"/>
              <rect id="Shape-82" data-name="Shape" width="94.5" height="94.5" transform="translate(567)" fill="#37abb7"/>
              <rect id="Shape-83" data-name="Shape" width="94.5" height="94.5" transform="translate(189 189)" fill="#37abb7"/>
              <rect id="Shape-84" data-name="Shape" width="94.5" height="94.5" transform="translate(0 283.5)" fill="#37abb7"/>
              <rect id="Shape-85" data-name="Shape" width="94.5" height="94.5" transform="translate(567 283.5)" fill="#37abb7"/>
              <rect id="Shape-86" data-name="Shape" width="94.5" height="94.5" transform="translate(378 378)" fill="#37abb7"/>
              <rect id="Shape-87" data-name="Shape" width="94.5" height="94.5" transform="translate(472.5 378)" fill="#37abb7"/>
              <rect id="Shape-88" data-name="Shape" width="94.5" height="94.5" transform="translate(756 472.5)" fill="#37abb7"/>
              <rect id="Shape-89" data-name="Shape" width="94.5" height="94.5" transform="translate(0 567)" fill="#37abb7"/>
              <rect id="Shape-90" data-name="Shape" width="94.5" height="94.5" transform="translate(378 567)" fill="#37abb7"/>
            </g>
            <g id="Opacity-20-2" data-name="Opacity-20" transform="translate(94.5)" opacity="0.2">
              <rect id="Shape-91" data-name="Shape" width="94.5" height="94.5" transform="translate(94.5)" fill="#37abb7"/>
              <rect id="Shape-92" data-name="Shape" width="94.5" height="94.5" transform="translate(189 94.5)" fill="#37abb7"/>
              <rect id="Shape-93" data-name="Shape" width="94.5" height="94.5" transform="translate(661.5 94.5)" fill="#37abb7"/>
              <rect id="Shape-94" data-name="Shape" width="94.5" height="94.5" transform="translate(94.5 189)" fill="#37abb7"/>
              <rect id="Shape-95" data-name="Shape" width="94.5" height="94.5" transform="translate(283.5 189)" fill="#37abb7"/>
              <rect id="Shape-96" data-name="Shape" width="94.5" height="94.5" transform="translate(472.5 283.5)" fill="#37abb7"/>
              <rect id="Shape-97" data-name="Shape" width="94.5" height="94.5" transform="translate(0 378)" fill="#37abb7"/>
              <rect id="Shape-98" data-name="Shape" width="94.5" height="94.5" transform="translate(472.5 567)" fill="#37abb7"/>
            </g>
            <g id="Color-1-2" data-name="Color-1" transform="translate(0 94.5)">
              <rect id="Shape-99" data-name="Shape" width="94.5" height="94.5" transform="translate(661.5)" fill="#c4dd76"/>
              <rect id="Shape-100" data-name="Shape" width="94.5" height="94.5" transform="translate(850.5)" fill="#c4dd76"/>
              <rect id="Shape-101" data-name="Shape" width="94.5" height="94.5" transform="translate(94.5 94.5)" fill="#c4dd76"/>
              <rect id="Shape-102" data-name="Shape" width="94.5" height="94.5" transform="translate(850.5 283.5)" fill="#c4dd76"/>
              <rect id="Shape-103" data-name="Shape" width="94.5" height="94.5" transform="translate(0 378)" fill="#c4dd76"/>
              <rect id="Shape-104" data-name="Shape" width="94.5" height="94.5" transform="translate(567 378)" fill="#c4dd76"/>
              <rect id="Shape-105" data-name="Shape" width="94.5" height="94.5" transform="translate(661.5 378)" fill="#c4dd76"/>
              <rect id="Shape-106" data-name="Shape" width="94.5" height="94.5" transform="translate(567 567)" fill="#c4dd76"/>
              <rect id="Shape-107" data-name="Shape" width="94.5" height="94.5" transform="translate(756 567)" fill="#c4dd76"/>
            </g>
            <rect id="Shape-108" data-name="Shape" width="94.5" height="94.5" transform="translate(945 189)" fill="#37abb7"/>
            <rect id="Shape-109" data-name="Shape" width="94.5" height="94.5" transform="translate(945 567)" fill="#37abb7"/>
            <rect id="Shape-110" data-name="Shape" width="94.5" height="94.5" transform="translate(945 94.5)" fill="#37abb7"/>
            <rect id="Shape-111" data-name="Shape" width="94.5" height="94.5" transform="translate(945 472.5)" fill="#37abb7"/>
            <rect id="Shape-112" data-name="Shape" width="94.5" height="94.5" transform="translate(945 378)" fill="#37abb7"/>
            <rect id="Shape-113" data-name="Shape" width="94.5" height="94.5" transform="translate(850.5)" fill="#37abb7"/>
            <rect id="Shape-114" data-name="Shape" width="94.5" height="94.5" transform="translate(945)" fill="#c4dd76"/>
            <rect id="Shape-115" data-name="Shape" width="94.5" height="94.5" transform="translate(945 283.5)" fill="#c4dd76"/>
            <rect id="Shape-116" data-name="Shape" width="94.5" height="94.5" transform="translate(850.5 567)" fill="#c4dd76"/>
          </g>
        </g>
      </g>
    </g>
  </g>
</svg>
