<svg xmlns="http://www.w3.org/2000/svg" width="27.817" height="41.571" viewBox="0 0 27.817 41.571">
  <g id="Component_91_1" data-name="Component 91 – 1" transform="translate(0.5 0.5)">
    <g id="Path_15089" data-name="Path 15089" transform="translate(127.948 -197.949)" fill="#191919">
      <path d="M -114.2519226074219 238.7696228027344 C -114.4481811523438 238.7696228027344 -114.6466827392578 238.7661285400391 -114.8386535644531 238.7627258300781 C -115.0284271240234 238.7593688964844 -115.2246627807617 238.7559051513672 -115.4164733886719 238.7559051513672 L -115.4877700805664 238.7560729980469 C -115.6091842651367 238.7560882568359 -115.7167587280273 238.7377777099609 -115.82080078125 238.7200775146484 C -115.8619613647461 238.7130737304688 -115.9030990600586 238.7060241699219 -115.9442520141602 238.7005157470703 C -115.9610900878906 238.6982574462891 -115.977668762207 238.695556640625 -115.9942474365234 238.6928100585938 C -116.0111694335938 238.6900177001953 -116.0280380249023 238.6869049072266 -116.0450668334961 238.6856079101562 C -116.5454940795898 238.6470336914062 -117.0347213745117 238.5632629394531 -117.4991912841797 238.4366302490234 C -117.6457901000977 238.3966674804688 -117.7978515625 238.3598785400391 -117.9449005126953 238.3243255615234 C -118.1486740112305 238.2750244140625 -118.3593826293945 238.2240753173828 -118.5665969848633 238.1622772216797 C -118.8777389526367 238.0694885253906 -119.1784133911133 237.9602966308594 -119.4602584838867 237.8377227783203 C -119.8666687011719 237.6609344482422 -120.3378372192383 237.4525451660156 -120.7868041992188 237.2161407470703 C -121.9065704345703 236.62646484375 -122.9212036132812 235.8847045898438 -123.8025283813477 235.0114440917969 C -124.3040237426758 234.5145568847656 -124.7426910400391 234.0172271728516 -125.1436004638672 233.4910583496094 C -125.7347717285156 232.7153015136719 -126.2488708496094 231.8499603271484 -126.6716003417969 230.9190979003906 C -126.9897613525391 230.2184753417969 -127.2186737060547 229.5676116943359 -127.3713989257812 228.9293212890625 C -127.3906707763672 228.8487854003906 -127.4101715087891 228.7682800292969 -127.4296798706055 228.6877593994141 C -127.5112915039062 228.3509368896484 -127.5956802368164 228.0026550292969 -127.6618270874023 227.6537017822266 C -127.7046585083008 227.4278564453125 -127.7261810302734 227.2000579833984 -127.7469940185547 226.9797668457031 C -127.7548599243164 226.8963928222656 -127.7627334594727 226.8130187988281 -127.7717514038086 226.7298889160156 C -127.8016204833984 226.4546203613281 -127.8303833007812 226.1792449951172 -127.859130859375 225.9038543701172 L -127.8958129882812 225.5534210205078 L -127.8976135253906 225.5373077392578 C -127.899543762207 225.5204162597656 -127.9013900756836 225.5035400390625 -127.9025726318359 225.4866027832031 C -127.9382019042969 224.9766082763672 -127.973762512207 224.4665374755859 -128.0092315673828 223.9564666748047 C -128.0169677734375 223.8451538085938 -128.0254974365234 223.73388671875 -128.0340270996094 223.6226043701172 C -128.0529937744141 223.375 -128.0726165771484 223.1189575195312 -128.0831146240234 222.8645782470703 C -128.1175231933594 222.0318603515625 -128.1469879150391 221.1946868896484 -128.1706390380859 220.3762817382812 C -128.22021484375 218.6614379882812 -128.1941070556641 217.0133972167969 -128.1548461914062 215.0370941162109 C -128.1452178955078 214.5530853271484 -128.1086273193359 214.0650024414062 -128.0732116699219 213.5929870605469 C -128.0560455322266 213.3640441894531 -128.0382843017578 213.1273040771484 -128.0239562988281 212.8951873779297 C -128.0197601318359 212.8272094726562 -128.0184020996094 212.7584075927734 -128.0169677734375 212.6855773925781 C -128.0151519775391 212.5946655273438 -128.0132904052734 212.5006713867188 -128.0055236816406 212.4048461914062 C -127.9791717529297 212.079345703125 -127.9508209228516 211.7539978027344 -127.9224624633789 211.4286651611328 C -127.9030914306641 211.2064056396484 -127.8837203979492 210.9841461181641 -127.864990234375 210.7618560791016 C -127.8610000610352 210.7144622802734 -127.8593292236328 210.6651611328125 -127.8575668334961 210.6129760742188 C -127.855583190918 210.5542755126953 -127.8535308837891 210.4935760498047 -127.8479537963867 210.4307403564453 C -127.8362884521484 210.2993621826172 -127.8209686279297 210.1678009033203 -127.80615234375 210.0405731201172 L -127.7947616577148 209.9422454833984 C -127.7919998168945 209.9181213378906 -127.7876586914062 209.8941650390625 -127.783088684082 209.8702392578125 C -127.7807312011719 209.85791015625 -127.7779769897461 209.8456573486328 -127.7768478393555 209.8332061767578 C -127.7652130126953 209.7058410644531 -127.7542877197266 209.5784759521484 -127.7433700561523 209.4510955810547 C -127.7220077514648 209.2019958496094 -127.6999206542969 208.9443969726562 -127.6725921630859 208.6902770996094 C -127.6189804077148 208.1922760009766 -127.5572509765625 207.6978149414062 -127.5039291381836 207.2798004150391 C -127.4531784057617 206.8818969726562 -127.396728515625 206.4868621826172 -127.3421401977539 206.1048278808594 C -127.2900238037109 205.7399597167969 -127.2371368408203 205.384521484375 -127.1849822998047 205.0484161376953 C -127.129020690918 204.6878356933594 -127.0769500732422 204.3681488037109 -127.0258026123047 204.0710906982422 C -127.016242980957 204.0155487060547 -127.0068893432617 203.9599151611328 -126.9975280761719 203.9042816162109 C -126.9588394165039 203.6743011474609 -126.9188385009766 203.4364776611328 -126.8638000488281 203.2021636962891 C -126.7020034790039 202.5133056640625 -126.475700378418 201.9075775146484 -126.1719436645508 201.3503570556641 C -125.7969818115234 200.6625213623047 -125.3267135620117 200.0564880371094 -124.7741775512695 199.5491180419922 C -124.2760772705078 199.0916595458984 -123.7048721313477 198.7006988525391 -123.0764312744141 198.3870849609375 C -122.6657867431641 198.1821899414062 -122.222541809082 198.0187225341797 -121.7589721679688 197.9012145996094 C -121.3845596313477 197.8062744140625 -120.9472122192383 197.7049255371094 -120.4947738647461 197.7040405273438 C -119.2377471923828 197.7015380859375 -117.980712890625 197.6997375488281 -116.7236709594727 197.6994018554688 C -115.6289978027344 197.6991119384766 -114.5338973999023 197.6989288330078 -113.4392318725586 197.6989288330078 C -111.9746475219727 197.6989288330078 -110.5105133056641 197.6992645263672 -109.0459213256836 197.7001800537109 L -109.0328140258789 197.7001800537109 L -108.9464111328125 197.7000579833984 L -108.8587112426758 197.6999359130859 C -108.6773529052734 197.6999359130859 -108.4664688110352 197.7020874023438 -108.2587814331055 197.7276763916016 C -107.7298278808594 197.7928009033203 -107.2003936767578 197.918701171875 -106.6852035522461 198.1018829345703 C -106.0585479736328 198.32470703125 -105.471076965332 198.6395874023438 -104.8892288208008 199.0645599365234 C -104.4297790527344 199.4001159667969 -104.0129013061523 199.7967834472656 -103.6501770019531 200.2435455322266 C -103.1453323364258 200.8654022216797 -102.7538528442383 201.5538940429688 -102.4866104125977 202.2899169921875 C -102.336181640625 202.7041473388672 -102.243049621582 203.0512390136719 -102.1935119628906 203.3822174072266 C -102.1623001098633 203.5908050537109 -102.1196975708008 203.8043212890625 -102.0784912109375 204.0108184814453 C -102.0454483032227 204.1764526367188 -102.0112686157227 204.3477172851562 -101.9823684692383 204.5188140869141 C -101.9553527832031 204.6788787841797 -101.9369277954102 204.8396759033203 -101.9191131591797 204.9951782226562 C -101.907829284668 205.0935974121094 -101.8961715698242 205.1953582763672 -101.8826293945312 205.2936706542969 L -101.8758087158203 205.3432922363281 C -101.8489074707031 205.5394439697266 -101.8234939575195 205.7247314453125 -101.7857818603516 205.9088439941406 C -101.6903381347656 206.3748779296875 -101.9505767822266 206.847900390625 -102.4045715332031 207.0335845947266 C -102.5166015625 207.0794067382812 -102.6355972290039 207.1026458740234 -102.7582473754883 207.1026458740234 C -103.1719512939453 207.1026916503906 -103.553108215332 206.8434143066406 -103.7067031860352 206.4575042724609 C -103.7682342529297 206.3029174804688 -103.783576965332 206.1597442626953 -103.7984237670898 206.0212860107422 L -103.7990188598633 206.015625 C -103.8197402954102 205.8226165771484 -103.853157043457 205.6251678466797 -103.885612487793 205.439453125 C -103.9044494628906 205.3316040039062 -103.9262924194336 205.2210083007812 -103.9474182128906 205.1140441894531 C -103.9706115722656 204.99658203125 -103.9945983886719 204.8751068115234 -104.0154418945312 204.7535705566406 C -104.0398483276367 204.6111450195312 -104.0618438720703 204.4669647216797 -104.0831069946289 204.3275451660156 C -104.120849609375 204.080078125 -104.1598892211914 203.8241882324219 -104.2125930786133 203.5794830322266 C -104.2928314208984 203.2069244384766 -104.4189071655273 202.8473663330078 -104.5873413085938 202.5107879638672 C -104.8862838745117 201.913330078125 -105.2724990844727 201.4005126953125 -105.7352676391602 200.9865570068359 C -106.2713928222656 200.5069885253906 -106.8664321899414 200.1607055664062 -107.5038375854492 199.9573669433594 C -107.7571029663086 199.8765563964844 -108.0272216796875 199.81396484375 -108.3296432495117 199.7660064697266 C -108.695198059082 199.7080383300781 -109.0763320922852 199.7079925537109 -109.41259765625 199.7079467773438 L -112.3815536499023 199.707763671875 L -116.3846282958984 199.7079467773438 L -119.6946029663086 199.7081146240234 C -119.7399291992188 199.7081146240234 -119.7853393554688 199.7067565917969 -119.8307418823242 199.7053680419922 C -119.8710021972656 199.7041168212891 -119.911262512207 199.7028503417969 -119.9514083862305 199.7028503417969 C -119.9865798950195 199.7028503417969 -120.0169372558594 199.7038879394531 -120.0442123413086 199.7060241699219 C -120.1305999755859 199.7127838134766 -120.2174224853516 199.7178802490234 -120.3042984008789 199.7229461669922 C -120.5397872924805 199.7366943359375 -120.76220703125 199.7496795654297 -120.9736404418945 199.7960968017578 C -122.1755599975586 200.0599365234375 -123.1532897949219 200.6513366699219 -123.8796997070312 201.5538482666016 C -124.2482376098633 202.0117340087891 -124.5284194946289 202.5120239257812 -124.7124633789062 203.0408020019531 C -124.8354873657227 203.3943176269531 -124.923454284668 203.7786560058594 -124.9813690185547 204.2157440185547 C -125.0008926391602 204.363037109375 -125.0287628173828 204.5079803466797 -125.0557174682617 204.6481475830078 C -125.0734710693359 204.7404479980469 -125.0918273925781 204.8358917236328 -125.1070022583008 204.9284515380859 C -125.1288681030273 205.0618438720703 -125.1486892700195 205.1990966796875 -125.1678619384766 205.3318176269531 C -125.1833724975586 205.4392395019531 -125.1988906860352 205.5466766357422 -125.2156524658203 205.6538848876953 C -125.2481842041016 205.8620452880859 -125.2824783325195 206.0699157714844 -125.3167877197266 206.2777862548828 L -125.3494186401367 206.4758758544922 C -125.3524017333984 206.4940338134766 -125.3566207885742 206.5120239257812 -125.3611221313477 206.5299377441406 C -125.3622817993164 206.5345458984375 -125.3635635375977 206.5391235351562 -125.3644485473633 206.5437469482422 C -125.3746185302734 206.6330871582031 -125.3848190307617 206.7264556884766 -125.3950119018555 206.8198547363281 C -125.4147033691406 207.0001831054688 -125.43505859375 207.1866455078125 -125.4593124389648 207.3708953857422 C -125.4828338623047 207.5498199462891 -125.5094909667969 207.7304229736328 -125.535270690918 207.9050750732422 C -125.55712890625 208.0532379150391 -125.5790100097656 208.2014007568359 -125.5991973876953 208.3497772216797 C -125.6048202514648 208.3910675048828 -125.6066513061523 208.4375457763672 -125.6085891723633 208.4867706298828 C -125.6104278564453 208.5332489013672 -125.6123199462891 208.5813140869141 -125.6174926757812 208.6321258544922 C -125.6475830078125 208.9278564453125 -125.6782531738281 209.2235260009766 -125.7089080810547 209.5192108154297 C -125.7402801513672 209.8215942382812 -125.7716522216797 210.1239776611328 -125.8023834228516 210.4264373779297 C -125.824089050293 210.6400146484375 -125.8432998657227 210.8583221435547 -125.8618698120117 211.0694274902344 L -125.8678512573242 211.1372375488281 C -125.9110107421875 211.6267242431641 -125.9535140991211 212.1162261962891 -125.9958724975586 212.6057586669922 C -126.0032577514648 212.6912078857422 -126.0100173950195 212.7693023681641 -126.0134201049805 212.8471984863281 C -126.0239105224609 213.0866394042969 -126.032958984375 213.3261260986328 -126.0420074462891 213.5655975341797 C -126.0608139038086 214.0630035400391 -126.0802383422852 214.5773468017578 -126.1128997802734 215.0839996337891 C -126.2003936767578 216.4415130615234 -126.1887893676758 217.8269805908203 -126.1785583496094 219.0493469238281 C -126.1721878051758 219.809814453125 -126.1488723754883 220.6157684326172 -126.1029281616211 221.66259765625 C -126.0790405273438 222.2068176269531 -126.0435409545898 222.7609252929688 -126.0092086791992 223.2967834472656 C -125.9916229248047 223.5713348388672 -125.9740295410156 223.8459014892578 -125.9578323364258 224.1205291748047 C -125.9524383544922 224.2118072509766 -125.9493026733398 224.3032073974609 -125.9462585449219 224.3916168212891 C -125.9419403076172 224.5174560546875 -125.9378509521484 224.6363067626953 -125.9278411865234 224.7550506591797 C -125.8834915161133 225.2814788818359 -125.832878112793 225.8393249511719 -125.7685623168945 226.5106964111328 C -125.7639541625977 226.5588989257812 -125.7595977783203 226.6071472167969 -125.7552490234375 226.6554260253906 C -125.7363891601562 226.8648681640625 -125.7185668945312 227.0626678466797 -125.679801940918 227.2550964355469 C -125.5968704223633 227.6669464111328 -125.4984283447266 228.084228515625 -125.38720703125 228.4953918457031 C -125.2971496582031 228.8283386230469 -125.1950836181641 229.2056884765625 -125.0534439086914 229.5509643554688 C -124.8444442749023 230.0603790283203 -124.6315536499023 230.5165863037109 -124.4025802612305 230.9456176757812 C -123.9619979858398 231.7712554931641 -123.3745574951172 232.5699157714844 -122.6565704345703 233.3194274902344 C -121.9778137207031 234.0279846191406 -121.1950607299805 234.6493225097656 -120.3300704956055 235.1661682128906 C -119.7898025512695 235.4889984130859 -119.276237487793 235.7440795898438 -118.7600402832031 235.9459838867188 C -118.2518768310547 236.1447143554688 -117.8309707641602 236.28271484375 -117.435417175293 236.3802947998047 C -117.0586776733398 236.4732055664062 -116.6687622070312 236.5527496337891 -116.2433929443359 236.6234436035156 C -115.6917266845703 236.7151031494141 -115.1126403808594 236.7615661621094 -114.5222320556641 236.7615661621094 C -114.3305206298828 236.7615661621094 -114.1336975097656 236.7566986083984 -113.9372100830078 236.7470550537109 C -113.6773300170898 236.7343597412109 -113.4205169677734 236.6984558105469 -113.1486434936523 236.6604461669922 C -113.0592193603516 236.64794921875 -112.9698181152344 236.6354675292969 -112.8804092407227 236.6238403320312 C -112.6576766967773 236.5949401855469 -112.4207992553711 236.5629119873047 -112.1883010864258 236.517333984375 C -111.9704818725586 236.4746246337891 -111.7438888549805 236.4201354980469 -111.5148468017578 236.3553771972656 C -111.2599029541016 236.2832489013672 -110.996223449707 236.2086486816406 -110.7473602294922 236.112060546875 C -110.3547286987305 235.9596252441406 -109.999153137207 235.8081359863281 -109.6603393554688 235.6489410400391 C -108.7320938110352 235.2127227783203 -107.8540420532227 234.630126953125 -107.0505828857422 233.9173583984375 C -106.158447265625 233.1259460449219 -105.3910522460938 232.1842651367188 -104.7696838378906 231.1184844970703 C -104.4998016357422 230.6555786132812 -104.2732315063477 230.1822509765625 -104.0962677001953 229.7116546630859 L -104.0300140380859 229.5362548828125 C -103.9230422973633 229.2537841796875 -103.8124237060547 228.9617004394531 -103.7218933105469 228.6725463867188 C -103.6697387695312 228.5060424804688 -103.6341705322266 228.3331298828125 -103.5965118408203 228.1500701904297 C -103.57958984375 228.0678253173828 -103.5626602172852 227.985595703125 -103.5441970825195 227.9038391113281 C -103.5304412841797 227.8429260253906 -103.5159072875977 227.7821655273438 -103.5013809204102 227.7213897705078 C -103.4678421020508 227.5811767578125 -103.4361572265625 227.4487152099609 -103.4139633178711 227.3150939941406 C -103.3776473999023 227.0966186523438 -103.3466720581055 226.857177734375 -103.3164520263672 226.5615844726562 C -103.2742691040039 226.1490173339844 -103.2353515625 225.7285766601562 -103.1977081298828 225.3219451904297 L -103.1696090698242 225.0191040039062 C -103.1646728515625 224.9660949707031 -103.1619415283203 224.9118041992188 -103.1590576171875 224.8543243408203 C -103.1577377319336 224.8280639648438 -103.1564178466797 224.8018188476562 -103.1548767089844 224.7755889892578 C -103.14404296875 224.5902404785156 -103.132926940918 224.4049377441406 -103.1218185424805 224.2196350097656 C -103.0965728759766 223.7985076904297 -103.0704727172852 223.363037109375 -103.0481414794922 222.93505859375 C -103.0364990234375 222.7120361328125 -103.0277709960938 222.4842224121094 -103.0193176269531 222.2639007568359 C -103.0057525634766 221.9103240966797 -102.9917297363281 221.5447082519531 -102.9652709960938 221.1838531494141 C -102.8763732910156 219.9715576171875 -102.8888778686523 218.732666015625 -102.900993347168 217.5345916748047 C -102.904411315918 217.1955718994141 -102.9079513549805 216.8450164794922 -102.9091567993164 216.4998626708984 C -102.9114074707031 215.8576812744141 -102.9439010620117 215.201904296875 -102.9753189086914 214.5677337646484 C -102.9865341186523 214.3413848876953 -102.9977416992188 214.1150665283203 -103.0076904296875 213.8887634277344 C -103.0225524902344 213.5509185791016 -103.0456008911133 213.206298828125 -103.0679016113281 212.873046875 L -103.0825042724609 212.6536407470703 C -103.1045989990234 212.3180847167969 -103.1315994262695 211.9203491210938 -103.1642608642578 211.5146942138672 C -103.1705322265625 211.4367065429688 -103.1805877685547 211.3583831787109 -103.1912307739258 211.2754516601562 C -103.2047271728516 211.1703186035156 -103.2186813354492 211.0616149902344 -103.224967956543 210.9497680664062 C -103.2526931762695 210.4571533203125 -102.9691390991211 210.0360870361328 -102.5193710327148 209.9020385742188 C -102.4158630371094 209.8712158203125 -102.3099136352539 209.8555755615234 -102.2044219970703 209.8555755615234 C -101.7046737670898 209.8555755615234 -101.3049240112305 210.1930389404297 -101.2323226928711 210.6762237548828 C -101.1986312866211 210.9005432128906 -101.1808319091797 211.1265716552734 -101.1636199951172 211.3451538085938 L -101.1525802612305 211.4835815429688 C -101.1098175048828 212.0052795410156 -101.0687637329102 212.5355987548828 -101.029052734375 213.0484619140625 L -101.0123825073242 213.2637634277344 C -101.0075912475586 213.3255615234375 -101.0047912597656 213.3875274658203 -101.0020370483398 213.4494934082031 C -101.0006790161133 213.4800872802734 -100.9993209838867 213.5106658935547 -100.9976806640625 213.5412445068359 L -100.9762878417969 213.93359375 C -100.9589538574219 214.2492828369141 -100.9416198730469 214.5649719238281 -100.926383972168 214.8807678222656 C -100.9206237792969 215.0001983642578 -100.9199295043945 215.1191711425781 -100.9192504882812 215.2342376708984 C -100.9189834594727 215.2813262939453 -100.918701171875 215.3284149169922 -100.918083190918 215.37548828125 L -100.8901824951172 217.5025787353516 L -100.8811721801758 218.19091796875 L -100.8811340332031 218.1941070556641 L -100.8811721801758 218.1972961425781 C -100.8854598999023 218.5415649414062 -100.8884811401367 218.8802337646484 -100.8914642333984 219.2149963378906 C -100.8984985351562 220.0052185058594 -100.9051513671875 220.7516174316406 -100.9273071289062 221.5101776123047 C -100.9408416748047 221.9734191894531 -100.9755477905273 222.4409484863281 -101.0091171264648 222.8930816650391 C -101.0266036987305 223.1285247802734 -101.044677734375 223.3719940185547 -101.059440612793 223.6107940673828 C -101.0688781738281 223.7637939453125 -101.0751190185547 223.9209747314453 -101.0811538696289 224.0729827880859 C -101.0867233276367 224.2134857177734 -101.0924835205078 224.3587493896484 -101.1008071899414 224.5026245117188 C -101.1190185546875 224.8172760009766 -101.1373138427734 225.0591583251953 -101.1601028442383 225.2869110107422 C -101.1834182739258 225.5200653076172 -101.2097702026367 225.7561187744141 -101.2352523803711 225.9844055175781 C -101.2573699951172 226.1825561523438 -101.2794876098633 226.3807067871094 -101.2999267578125 226.5790252685547 C -101.3049468994141 226.6277008056641 -101.3060989379883 226.6804046630859 -101.3073120117188 226.7362213134766 C -101.3091506958008 226.8205871582031 -101.3110504150391 226.9078369140625 -101.3260116577148 227.0004577636719 C -101.345458984375 227.1208953857422 -101.3634490966797 227.2416076660156 -101.381462097168 227.3623046875 C -101.4425430297852 227.7717742919922 -101.5056915283203 228.1951904296875 -101.626220703125 228.6095886230469 C -101.6639709472656 228.7393798828125 -101.6987380981445 228.8745727539062 -101.7323684692383 229.0053100585938 C -101.7846984863281 229.2087554931641 -101.8388137817383 229.4191436767578 -101.9077987670898 229.6255187988281 C -102.2344970703125 230.6030578613281 -102.664176940918 231.53271484375 -103.1849212646484 232.388671875 C -104.0885238647461 233.8739929199219 -105.276123046875 235.1668853759766 -106.714729309082 236.2314453125 C -107.3230133056641 236.6815643310547 -108.0011596679688 237.0883483886719 -108.7879409790039 237.4750671386719 C -109.0899124145508 237.6235198974609 -109.4051513671875 237.7449645996094 -109.7099990844727 237.8624114990234 C -109.7710800170898 237.8859405517578 -109.8321380615234 237.9094696044922 -109.8930587768555 237.9331970214844 C -110.2240142822266 238.0620880126953 -110.4945068359375 238.1572570800781 -110.7443313598633 238.232666015625 C -110.9346923828125 238.2901000976562 -111.1279525756836 238.3343658447266 -111.3148422241211 238.3771820068359 C -111.3910980224609 238.3946533203125 -111.4673614501953 238.412109375 -111.5433578491211 238.4304656982422 C -111.5982894897461 238.4437103271484 -111.6530532836914 238.4576721191406 -111.7078094482422 238.4716186523438 C -111.847541809082 238.5072326660156 -111.9920272827148 238.5440368652344 -112.1409225463867 238.56982421875 C -112.2769927978516 238.5933990478516 -112.4133911132812 238.6100158691406 -112.5453033447266 238.6260986328125 C -112.6712341308594 238.6414337158203 -112.7901840209961 238.6559143066406 -112.9088287353516 238.6759490966797 C -113.4010391235352 238.7589874267578 -113.8851470947266 238.7696228027344 -114.2519226074219 238.7696228027344 Z" stroke="none"/>
      <path d="M -113.4392318725586 197.9489288330078 C -115.7907638549805 197.9489135742188 -118.1427764892578 197.9493713378906 -120.4942779541016 197.9540405273438 C -120.9047622680664 197.9548492431641 -121.3042068481445 198.0438232421875 -121.6975402832031 198.1435394287109 C -122.1343383789062 198.2542724609375 -122.5590438842773 198.4083251953125 -122.9647979736328 198.6107788085938 C -123.5636215209961 198.9096069335938 -124.1119384765625 199.2803497314453 -124.6050872802734 199.7332458496094 C -125.1525802612305 200.2360076904297 -125.5973129272461 200.8185577392578 -125.9524383544922 201.4700164794922 C -126.2600631713867 202.0343017578125 -126.4738540649414 202.6352844238281 -126.6204223632812 203.2593383789062 C -126.6865768432617 203.5409851074219 -126.7303009033203 203.8280639648438 -126.7794342041016 204.1135101318359 C -126.8352127075195 204.4374084472656 -126.8875427246094 204.7619476318359 -126.9379425048828 205.0867614746094 C -126.9923934936523 205.4375610351562 -127.0444488525391 205.7887573242188 -127.0946502685547 206.1401977539062 C -127.1504135131836 206.5303344726562 -127.2060928344727 206.9205169677734 -127.2559432983398 207.3114318847656 C -127.3156433105469 207.7794799804688 -127.3735198974609 208.2478637695312 -127.4240188598633 208.7170104980469 C -127.4647903442383 209.0959777832031 -127.4932022094727 209.4762573242188 -127.5278778076172 209.8558807373047 C -127.5314025878906 209.8944091796875 -127.5419769287109 209.9322204589844 -127.54638671875 209.970703125 C -127.5648040771484 210.13134765625 -127.5846405029297 210.2918701171875 -127.5989303588867 210.4528656005859 C -127.6086730957031 210.5625 -127.6066284179688 210.6731414794922 -127.6158828735352 210.7828369140625 C -127.6620025634766 211.3302917480469 -127.7120132446289 211.87744140625 -127.75634765625 212.4250335693359 C -127.7694091796875 212.5863189697266 -127.7644577026367 212.7489929199219 -127.7744293212891 212.9105987548828 C -127.8182983398438 213.6211395263672 -127.8907623291016 214.3309936523438 -127.9048919677734 215.0420684814453 C -127.9401702880859 216.8174133300781 -127.9720840454102 218.5933074951172 -127.9207534790039 220.3690643310547 C -127.8967895507812 221.1976013183594 -127.867561340332 222.0260467529297 -127.8333435058594 222.854248046875 C -127.8183822631836 223.2162475585938 -127.7849731445312 223.5775146484375 -127.7598342895508 223.9391174316406 C -127.7243728637695 224.4491577148438 -127.6888122558594 224.9592132568359 -127.6531677246094 225.46923828125 C -127.6518325805664 225.4886322021484 -127.6492233276367 225.5079040527344 -127.6471786499023 225.5272674560547 C -127.6059722900391 225.9191589355469 -127.5657196044922 226.3111572265625 -127.5232086181641 226.7029113769531 C -127.4904479980469 227.0047607421875 -127.4726333618164 227.3096771240234 -127.4162139892578 227.6071319580078 C -127.3357696533203 228.0314331054688 -127.2288436889648 228.4508361816406 -127.1282730102539 228.8711395263672 C -126.9675369262695 229.5428161621094 -126.7287139892578 230.1887054443359 -126.4439697265625 230.8157348632812 C -126.037353515625 231.7111206054688 -125.543083190918 232.5543975830078 -124.9447631835938 233.3395385742188 C -124.5400085449219 233.8707275390625 -124.0995025634766 234.3652648925781 -123.6265716552734 234.8338623046875 C -122.7495727539062 235.7028198242188 -121.7608489990234 236.420654296875 -120.6703186035156 236.9949340820312 C -120.2441329956055 237.2193603515625 -119.8025588989258 237.4161987304688 -119.3605499267578 237.6084594726562 C -119.0795288085938 237.7306823730469 -118.7888870239258 237.8351135253906 -118.4951629638672 237.9226989746094 C -118.145263671875 238.0270385742188 -117.7859573364258 238.0993347167969 -117.4334335327148 238.1954345703125 C -116.9715881347656 238.3213500976562 -116.5025405883789 238.3995971679688 -116.02587890625 238.4363403320312 C -115.9874267578125 238.4393005371094 -115.9494018554688 238.4475708007812 -115.9110870361328 238.4527282714844 C -115.7703857421875 238.4715423583984 -115.6298599243164 238.506103515625 -115.4889373779297 238.5060729980469 C -115.0768051147461 238.5038757324219 -114.6641616821289 238.5196228027344 -114.2518768310547 238.5196228027344 C -113.8172607421875 238.5196228027344 -113.3830184936523 238.5024108886719 -112.9504470825195 238.429443359375 C -112.6960906982422 238.3865051269531 -112.4376831054688 238.3675231933594 -112.1835708618164 238.323486328125 C -111.9877319335938 238.2895812988281 -111.7956085205078 238.234130859375 -111.6020202636719 238.1874389648438 C -111.3398132324219 238.1241455078125 -111.0744476318359 238.0711364746094 -110.8165740966797 237.9933166503906 C -110.5350875854492 237.9083557128906 -110.257926940918 237.8070068359375 -109.9837799072266 237.7002258300781 C -109.6187896728516 237.55810546875 -109.2490234375 237.4231567382812 -108.8982238769531 237.2507019042969 C -108.1869201660156 236.9010925292969 -107.5020141601562 236.5030212402344 -106.8634414672852 236.0304870605469 C -105.4660491943359 234.9964294433594 -104.3041229248047 233.7473754882812 -103.3984985351562 232.2587280273438 C -102.876708984375 231.4010467529297 -102.4623336791992 230.4960327148438 -102.1448974609375 229.5462493896484 C -102.0346908569336 229.2165679931641 -101.9635009765625 228.8740386962891 -101.8662719726562 228.5397644042969 C -101.7159271240234 228.0228576660156 -101.6581726074219 227.4891967773438 -101.5728073120117 226.9606018066406 C -101.5512542724609 226.8270568847656 -101.5625610351562 226.6885681152344 -101.5486068725586 226.5534057617188 C -101.5042266845703 226.1227416992188 -101.4519500732422 225.6928558349609 -101.4088592529297 225.2620239257812 C -101.3831100463867 225.0046997070312 -101.3653411865234 224.7464141845703 -101.3503875732422 224.4881744384766 C -101.3331832885742 224.1907653808594 -101.3273239135742 223.8926696777344 -101.3089599609375 223.5953674316406 C -101.2658538818359 222.8977508544922 -101.1975936889648 222.2010498046875 -101.1772003173828 221.5028686523438 C -101.1455993652344 220.4211120605469 -101.1454238891602 219.3384552001953 -101.1311492919922 218.1941833496094 C -101.1428985595703 217.2969970703125 -101.1554183959961 216.337890625 -101.1680603027344 215.3787841796875 C -101.1702041625977 215.2167816162109 -101.1682891845703 215.0545654296875 -101.1760940551758 214.892822265625 C -101.197624206543 214.4466552734375 -101.2233428955078 214.0006866455078 -101.2473220825195 213.5546417236328 C -101.2521820068359 213.464111328125 -101.2546310424805 213.3734130859375 -101.2616271972656 213.2830810546875 C -101.3076019287109 212.6899871826172 -101.3531494140625 212.0968933105469 -101.401741027832 211.5039978027344 C -101.4233703613281 211.2400512695312 -101.4402618408203 210.9749145507812 -101.4795532226562 210.71337890625 C -101.54833984375 210.2555236816406 -102 210.0081481933594 -102.4479598999023 210.1416320800781 C -102.7928771972656 210.2444305419922 -102.9959716796875 210.569580078125 -102.9753570556641 210.9357299804688 C -102.9648590087891 211.12255859375 -102.9300842285156 211.3078918457031 -102.9150695800781 211.49462890625 C -102.8844299316406 211.8752136230469 -102.8581390380859 212.2561798095703 -102.8330535888672 212.63720703125 C -102.8058242797852 213.0505981445312 -102.7761306762695 213.4639434814453 -102.757926940918 213.8777770996094 C -102.7195434570312 214.7513580322266 -102.662223815918 215.6251373291016 -102.6591567993164 216.4989929199219 C -102.653678894043 218.0666656494141 -102.6010437011719 219.6353149414062 -102.7159423828125 221.2021331787109 C -102.7585296630859 221.7830047607422 -102.7681198120117 222.3662261962891 -102.7984771728516 222.9480743408203 C -102.8305206298828 223.5623016357422 -102.8693923950195 224.1761474609375 -102.9053115844727 224.7901611328125 C -102.9102172851562 224.8742370605469 -102.9128799438477 224.95849609375 -102.9206924438477 225.0422973632812 C -102.9686737060547 225.5572814941406 -103.01513671875 226.0724487304688 -103.0677490234375 226.5870056152344 C -103.0940322875977 226.8441162109375 -103.1249923706055 227.1012420654297 -103.1673431396484 227.3560943603516 C -103.2010269165039 227.5588073730469 -103.2549896240234 227.7581329345703 -103.3003387451172 227.9589080810547 C -103.3597869873047 228.22216796875 -103.4029235839844 228.4905548095703 -103.4833068847656 228.7472534179688 C -103.5946426391602 229.102783203125 -103.7310333251953 229.4506072998047 -103.8622741699219 229.7996368408203 C -104.0508193969727 230.3010711669922 -104.2846603393555 230.7829284667969 -104.5537109375 231.2444152832031 C -105.1801528930664 232.3188781738281 -105.9528198242188 233.2777252197266 -106.8846740722656 234.1043701171875 C -107.6911773681641 234.8198547363281 -108.5779190063477 235.41650390625 -109.5540237426758 235.8752136230469 C -109.9155197143555 236.0450744628906 -110.2845306396484 236.2005615234375 -110.6568984985352 236.3451232910156 C -110.9140167236328 236.4449157714844 -111.1810302734375 236.520751953125 -111.4468383789062 236.595947265625 C -111.6754608154297 236.6605834960938 -111.907096862793 236.7169494628906 -112.1402130126953 236.7626647949219 C -112.3743591308594 236.8085632324219 -112.6114196777344 236.8410339355469 -112.8481979370117 236.8717651367188 C -113.2066116333008 236.9183349609375 -113.5648422241211 236.9791564941406 -113.9249725341797 236.9967651367188 C -114.7146148681641 237.0354766845703 -115.5019149780273 237.0000610351562 -116.2843780517578 236.8700561523438 C -116.6914825439453 236.8023986816406 -117.0941696166992 236.7219543457031 -117.4953002929688 236.6230163574219 C -117.9596176147461 236.5084838867188 -118.4083404541016 236.3519592285156 -118.8510971069336 236.1788024902344 C -119.4093627929688 235.96044921875 -119.9435729980469 235.6883544921875 -120.4582977294922 235.3807678222656 C -121.3346939086914 234.8571166992188 -122.131477355957 234.2289733886719 -122.8370971679688 233.4923706054688 C -123.5369567871094 232.7617797851562 -124.1459503173828 231.9575653076172 -124.6231384277344 231.0633239746094 C -124.8683776855469 230.6037902832031 -125.0869903564453 230.1278381347656 -125.2847290039062 229.6458435058594 C -125.4282989501953 229.2958679199219 -125.5294799804688 228.9268798828125 -125.6285400390625 228.5606689453125 C -125.740837097168 228.1455230712891 -125.8399810791016 227.7261047363281 -125.9248809814453 227.3044738769531 C -125.9757690429688 227.0518493652344 -125.9927825927734 226.7919311523438 -126.0174331665039 226.5345458984375 C -126.0735473632812 225.9486694335938 -126.1275482177734 225.3625335693359 -126.1769638061523 224.7760467529297 C -126.1949081420898 224.5631103515625 -126.1947937011719 224.3487243652344 -126.2073974609375 224.13525390625 C -126.2557983398438 223.3146667480469 -126.3166427612305 222.4946746826172 -126.3526916503906 221.6735534667969 C -126.3910217285156 220.8000640869141 -126.4212341308594 219.9256744384766 -126.4285507202148 219.0514373779297 C -126.4396667480469 217.7233581542969 -126.4479217529297 216.3950805664062 -126.3623809814453 215.0679168701172 C -126.3144989013672 214.3250122070312 -126.295783996582 213.5802307128906 -126.26318359375 212.8363037109375 C -126.2595138549805 212.7521514892578 -126.252197265625 212.6681213378906 -126.2449417114258 212.5841979980469 C -126.2025680541992 212.0945434570312 -126.1600570678711 211.6048889160156 -126.1168823242188 211.1152954101562 C -126.0958938598633 210.8771667480469 -126.0752716064453 210.6389923095703 -126.0511016845703 210.4011535644531 C -125.9903106689453 209.8029632568359 -125.9270629882812 209.2050170898438 -125.8662109375 208.6068115234375 C -125.8563842773438 208.5102233886719 -125.859992980957 208.4120788574219 -125.846923828125 208.3160705566406 C -125.8025207519531 207.9898376464844 -125.7500839233398 207.6646728515625 -125.7071685791016 207.3382720947266 C -125.6709671020508 207.0631713867188 -125.6439819335938 206.786865234375 -125.6122436523438 206.5111694335938 C -125.6093139648438 206.4856567382812 -125.6003036499023 206.4608459472656 -125.5961227416992 206.4353942871094 C -125.5512619018555 206.1620788574219 -125.5054168701172 205.888916015625 -125.4626541137695 205.6152801513672 C -125.4247894287109 205.3730926513672 -125.3933639526367 205.1298675537109 -125.3537139892578 204.8880004882812 C -125.3150939941406 204.6524658203125 -125.2605285644531 204.4192657470703 -125.2292022705078 204.1829071044922 C -125.1738891601562 203.7654724121094 -125.0865936279297 203.355224609375 -124.9485702514648 202.9586181640625 C -124.7498931884766 202.3877868652344 -124.4544219970703 201.8691864013672 -124.0744476318359 201.3970947265625 C -123.2814025878906 200.4117736816406 -122.2488327026367 199.820068359375 -121.0272369384766 199.5519104003906 C -120.714111328125 199.4831695556641 -120.3856887817383 199.4820251464844 -120.0637588500977 199.456787109375 C -119.9415054321289 199.4472198486328 -119.8177108764648 199.4581146240234 -119.6946105957031 199.4581146240234 C -116.2672653198242 199.4580230712891 -112.8399429321289 199.4574737548828 -109.4125671386719 199.4579467773438 C -109.0377197265625 199.4579925537109 -108.6650085449219 199.4596862792969 -108.2904891967773 199.5190887451172 C -107.9963684082031 199.5657348632812 -107.7068481445312 199.6301727294922 -107.427864074707 199.7191925048828 C -106.7316131591797 199.9413146972656 -106.1143798828125 200.31201171875 -105.5685882568359 200.8002319335938 C -105.0614929199219 201.2538452148438 -104.6668701171875 201.7931518554688 -104.36376953125 202.3989105224609 C -104.1845932006836 202.7569885253906 -104.0522842407227 203.1364135742188 -103.9681930541992 203.52685546875 C -103.8840026855469 203.9178161621094 -103.8366775512695 204.316650390625 -103.7690277099609 204.7113342285156 C -103.7297668457031 204.9403686523438 -103.6793441772461 205.1674957275391 -103.6393432617188 205.3964233398438 C -103.6049728393555 205.5931701660156 -103.5717468261719 205.7905426025391 -103.5504531860352 205.9889678955078 C -103.5366516113281 206.1176452636719 -103.5240325927734 206.2404174804688 -103.4744186401367 206.3650512695312 C -103.3234481811523 206.744384765625 -102.8745574951172 206.9557189941406 -102.4992141723633 206.8021850585938 C -102.1753082275391 206.6697082519531 -101.9566040039062 206.3208160400391 -102.0307006835938 205.9589996337891 C -102.0733871459961 205.7505493164062 -102.1012420654297 205.538818359375 -102.1302871704102 205.3277893066406 C -102.1654815673828 205.0723266601562 -102.1859893798828 204.8145294189453 -102.2288818359375 204.5604553222656 C -102.2933197021484 204.1789855957031 -102.3835296630859 203.8016357421875 -102.4407730102539 203.4192199707031 C -102.4946670532227 203.0590209960938 -102.5986785888672 202.7137298583984 -102.7216033935547 202.375244140625 C -102.9832229614258 201.6547241210938 -103.3607025146484 200.9967651367188 -103.8442687988281 200.401123046875 C -104.1928939819336 199.9717254638672 -104.5911483764648 199.5918273925781 -105.0366821289062 199.2664489746094 C -105.5697479248047 198.8771057128906 -106.142578125 198.5601501464844 -106.7689514160156 198.3374328613281 C -107.2644195556641 198.1612701416016 -107.7703704833984 198.0397033691406 -108.2893600463867 197.9757995605469 C -108.5345458984375 197.9455718994141 -108.7847290039062 197.9502258300781 -109.0328063964844 197.9501800537109 C -109.0372314453125 197.9501800537109 -109.0416564941406 197.9501800537109 -109.0460815429688 197.9501800537109 C -110.5106201171875 197.9492645263672 -111.9747085571289 197.9489288330078 -113.4392318725586 197.9489288330078 M -113.4392318725586 197.4489288330078 C -111.9746017456055 197.4489288330078 -110.5104141235352 197.4492645263672 -109.045768737793 197.4501800537109 L -108.8587112426758 197.4499359130859 C -108.6699523925781 197.4499359130859 -108.4499893188477 197.4522247314453 -108.2282028198242 197.4795532226562 C -107.6811676025391 197.5469055175781 -107.1338424682617 197.6770477294922 -106.601448059082 197.8663177490234 C -105.9516830444336 198.0973663330078 -105.3433837890625 198.4232788085938 -104.7417678833008 198.8626861572266 C -104.2649536132812 199.2109069824219 -103.8323822021484 199.6224975585938 -103.4560928344727 200.0859680175781 C -102.9336471557617 200.7294921875 -102.5284118652344 201.4423065185547 -102.2516174316406 202.20458984375 C -102.0953598022461 202.6349029541016 -101.9983291625977 202.9973449707031 -101.9462814331055 203.34521484375 C -101.9159622192383 203.5477752685547 -101.8758316040039 203.7488861083984 -101.8333511352539 203.9618072509766 C -101.7999420166016 204.1292572021484 -101.7653884887695 204.3023986816406 -101.7358627319336 204.4771728515625 C -101.7077331542969 204.6438140869141 -101.6889190673828 204.8079681396484 -101.6707305908203 204.9667358398438 C -101.6591033935547 205.0682067871094 -101.6481170654297 205.1640777587891 -101.6349716186523 205.2595672607422 L -101.6281280517578 205.309326171875 C -101.6017990112305 205.5012969970703 -101.5769271850586 205.6826171875 -101.5408706665039 205.8586883544922 C -101.4213180541992 206.4423980712891 -101.744758605957 207.0338287353516 -102.309944152832 207.2649688720703 C -102.4521408081055 207.3231353759766 -102.6029968261719 207.3526458740234 -102.7582778930664 207.3526458740234 C -103.2734298706055 207.3526458740234 -103.747917175293 207.0300598144531 -103.9389877319336 206.5499267578125 C -104.0131607055664 206.3635864257812 -104.0311431884766 206.1958923339844 -104.046989440918 206.0479278564453 L -104.0475997924805 206.0422973632812 C -104.0674667358398 205.8571319580078 -104.1001281738281 205.6641998291016 -104.1318817138672 205.4824676513672 C -104.1502532958984 205.3773345947266 -104.1708602905273 205.2729644775391 -104.1926879882812 205.1624450683594 C -104.216178894043 205.0434722900391 -104.240478515625 204.9204406738281 -104.2618408203125 204.7958068847656 C -104.2866439819336 204.651123046875 -104.3088073730469 204.5057830810547 -104.3302536010742 204.365234375 C -104.3691482543945 204.1102447509766 -104.405891418457 203.869384765625 -104.4569931030273 203.6321105957031 C -104.5327911376953 203.2801208496094 -104.6518707275391 202.9404907226562 -104.8109130859375 202.6226654052734 C -105.0956878662109 202.0535125732422 -105.4627685546875 201.5657348632812 -105.9019393920898 201.1728973388672 C -106.4116516113281 200.7169494628906 -106.9761734008789 200.3881225585938 -107.579833984375 200.1955413818359 C -107.8209228515625 200.1186065673828 -108.078987121582 200.0588836669922 -108.3687973022461 200.0129241943359 C -108.7147979736328 199.9580383300781 -109.0855407714844 199.9579772949219 -109.4126434326172 199.9579467773438 L -112.3354873657227 199.957763671875 L -119.6946029663086 199.9581146240234 C -119.7424697875977 199.9581146240234 -119.7904434204102 199.9567260742188 -119.8384017944336 199.9552459716797 C -119.9048004150391 199.9531860351562 -119.9768829345703 199.9515075683594 -120.0246429443359 199.9552612304688 C -120.1127090454102 199.962158203125 -120.2011871337891 199.9673614501953 -120.2897338867188 199.9725341796875 C -120.5150680541992 199.9856872558594 -120.727912902832 199.9981079101562 -120.9200286865234 200.040283203125 C -122.0810317993164 200.2951354980469 -122.9854431152344 200.8415069580078 -123.684944152832 201.7105865478516 C -124.0354766845703 202.1461181640625 -124.3017501831055 202.6213073730469 -124.4763488769531 203.1229705810547 C -124.5937423706055 203.4602966308594 -124.6778717041016 203.8284912109375 -124.733528137207 204.2485961914062 C -124.7540130615234 204.4030914306641 -124.7825775146484 204.5516510009766 -124.8102111816406 204.6953125 C -124.8284530639648 204.7901458740234 -124.8456726074219 204.8797149658203 -124.8602981567383 204.9689025878906 C -124.8817825317383 205.0999298095703 -124.9014205932617 205.2359771728516 -124.9204177856445 205.3675537109375 C -124.9360809326172 205.4759368896484 -124.9517440795898 205.5843200683594 -124.9686508178711 205.6925048828125 C -125.0012969970703 205.9013671875 -125.0357208251953 206.1099853515625 -125.0701370239258 206.3185882568359 L -125.1027221679688 206.5163726806641 C -125.1066055297852 206.5399932861328 -125.1118469238281 206.5634460449219 -125.1176300048828 206.5867462158203 C -125.127555847168 206.6735382080078 -125.1370239257812 206.7602691650391 -125.1464920043945 206.8469848632812 C -125.1663284301758 207.0286560058594 -125.1868438720703 207.2165374755859 -125.2114410400391 207.4035034179688 C -125.235221862793 207.5843658447266 -125.2620239257812 207.7659759521484 -125.2879486083984 207.9415740966797 C -125.3096771240234 208.0888061523438 -125.3314208984375 208.2360534667969 -125.3514938354492 208.3834991455078 C -125.3554916381836 208.4129180908203 -125.3571014404297 208.4535980224609 -125.3587875366211 208.4966430664062 C -125.3606796264648 208.5445861816406 -125.3628234863281 208.5989074707031 -125.368782043457 208.6574249267578 C -125.3988800048828 208.9533233642578 -125.429557800293 209.2491607666016 -125.4602508544922 209.5449981689453 C -125.4916000366211 209.8472137451172 -125.5229415893555 210.1494293212891 -125.5536575317383 210.4517059326172 C -125.5752029418945 210.6636199951172 -125.5943298339844 210.8810577392578 -125.6128387451172 211.0913391113281 L -125.6188125610352 211.1591949462891 C -125.6619720458984 211.6485443115234 -125.704460144043 212.1379241943359 -125.7468032836914 212.6273040771484 C -125.7539596557617 212.7100067138672 -125.7604904174805 212.7855377197266 -125.7636489868164 212.8580932617188 C -125.7741317749023 213.0970764160156 -125.7831573486328 213.3360595703125 -125.7921905517578 213.5750274658203 C -125.8110504150391 214.0740661621094 -125.8305511474609 214.5901031494141 -125.8634185791016 215.1000823974609 C -125.9503326416016 216.4485168457031 -125.9387741088867 217.8291473388672 -125.9285736083984 219.0472564697266 C -125.922233581543 219.8046569824219 -125.8989715576172 220.6078643798828 -125.8531723022461 221.6516265869141 C -125.8293914794922 222.1933288574219 -125.7939682006836 222.7461700439453 -125.7597198486328 223.2808074951172 C -125.7421035766602 223.5557861328125 -125.7244873046875 223.8307647705078 -125.7082672119141 224.1058044433594 C -125.7026977539062 224.2001342773438 -125.6995010375977 224.2931060791016 -125.6964111328125 224.3830261230469 C -125.6921997070312 224.5056762695312 -125.6882095336914 224.6215057373047 -125.6787338256836 224.7340545654297 C -125.6344909667969 225.2591094970703 -125.5839614868164 225.8160705566406 -125.5197067260742 226.4868621826172 C -125.5150375366211 226.5355682373047 -125.5106506347656 226.5843353271484 -125.5062484741211 226.6331481933594 C -125.4880218505859 226.8355255126953 -125.4707870483398 227.0267028808594 -125.4347305297852 227.2057342529297 C -125.3528671264648 227.6122741699219 -125.2556915283203 228.0242004394531 -125.1458892822266 228.4301147460938 C -125.0577392578125 228.7559661865234 -124.9578399658203 229.1252899169922 -124.8221435546875 229.4560699462891 C -124.6163711547852 229.9576416015625 -124.4069900512695 230.4063720703125 -124.1820297241211 230.8279113769531 C -123.752197265625 231.6333923339844 -123.17822265625 232.4134674072266 -122.4760284423828 233.146484375 C -121.8127822875977 233.8388671875 -121.0476303100586 234.4461822509766 -120.2018432617188 234.9515533447266 C -119.6735916137695 235.2672119140625 -119.1721878051758 235.5163269042969 -118.6689682006836 235.7131500244141 C -118.1712341308594 235.9078216552734 -117.7602310180664 236.0426788330078 -117.3755569458008 236.1375579833984 C -117.0051040649414 236.2289276123047 -116.6213607788086 236.3072052001953 -116.2024230957031 236.3768157958984 C -115.6642837524414 236.4662322998047 -115.0989685058594 236.5115661621094 -114.522216796875 236.5115661621094 C -114.3345031738281 236.5115661621094 -114.1417922973633 236.5067901611328 -113.9494476318359 236.4973602294922 C -113.7007675170898 236.4851989746094 -113.4493713378906 236.4500579833984 -113.1831970214844 236.4128570556641 C -113.0930023193359 236.4002380371094 -113.0028228759766 236.3876495361328 -112.9126281738281 236.3759307861328 C -112.6939010620117 236.3475341796875 -112.4615936279297 236.3161468505859 -112.2363891601562 236.2720031738281 C -112.0252532958984 236.2306060791016 -111.8053588867188 236.1777038574219 -111.5828628540039 236.1148071289062 C -111.3335876464844 236.0442962646484 -111.0757369995117 235.9713439941406 -110.8378067016602 235.8789978027344 C -110.4506072998047 235.7286834716797 -110.1002197265625 235.5794067382812 -109.7666473388672 235.4226837158203 C -108.8600692749023 234.9966278076172 -108.0020599365234 234.42724609375 -107.2164840698242 233.7303466796875 C -106.3442306518555 232.9565582275391 -105.5936737060547 232.0354461669922 -104.9856567382812 230.9925689697266 C -104.7228088378906 230.541748046875 -104.502311706543 230.0811614990234 -104.3302841186523 229.6236572265625 L -104.2639007568359 229.4479675292969 C -104.1533126831055 229.1559295654297 -104.0488510131836 228.8800964355469 -103.9604568481445 228.5978393554688 C -103.9120788574219 228.4433441162109 -103.8777389526367 228.2764129638672 -103.8413772583008 228.0996856689453 C -103.8241424560547 228.0158843994141 -103.8068695068359 227.9320831298828 -103.7880630493164 227.8487701416016 C -103.7740707397461 227.7868194580078 -103.7593002319336 227.7250366210938 -103.7445220947266 227.6632385253906 C -103.712028503418 227.5274047851562 -103.6813430786133 227.3990936279297 -103.6605834960938 227.2741241455078 C -103.6251525878906 227.0609283447266 -103.5948333740234 226.8264465332031 -103.5651626586914 226.5361633300781 C -103.523193359375 226.1257171630859 -103.4844131469727 225.7068328857422 -103.446907043457 225.3017272949219 L -103.4185333251953 224.9959259033203 C -103.4140930175781 224.9482116699219 -103.411491394043 224.8965148925781 -103.4087371826172 224.8417663574219 C -103.4073867797852 224.8148498535156 -103.4060287475586 224.7879180908203 -103.4044570922852 224.7610168457031 C -103.3936080932617 224.5755157470703 -103.3824920654297 224.3901062011719 -103.3713684082031 224.2046813964844 C -103.3461532592773 223.7840270996094 -103.3200836181641 223.3490447998047 -103.2977981567383 222.9220275878906 C -103.286247253418 222.7007293701172 -103.2775497436523 222.4737854003906 -103.2691268920898 222.2543334960938 C -103.2554931640625 221.8986053466797 -103.2413787841797 221.5307769775391 -103.214599609375 221.1655731201172 C -103.1264572143555 219.9636688232422 -103.1389236450195 218.7300872802734 -103.1509704589844 217.537109375 C -103.1544036865234 217.1976928710938 -103.1579513549805 216.8467102050781 -103.1591567993164 216.5007476806641 C -103.1613922119141 215.8643188476562 -103.193733215332 215.2114562988281 -103.2250137329102 214.5801086425781 C -103.2362518310547 214.3533020019531 -103.2474822998047 214.1265106201172 -103.257453918457 213.8997344970703 C -103.2721939086914 213.5645141601562 -103.2951736450195 213.2211151123047 -103.3173904418945 212.8890075683594 L -103.3319702148438 212.6700744628906 C -103.3539886474609 212.3356781005859 -103.3808898925781 211.9392852783203 -103.413459777832 211.5347442626953 C -103.4192504882812 211.462646484375 -103.4289398193359 211.3871765136719 -103.4392013549805 211.3072814941406 C -103.4532470703125 211.1977844238281 -103.4677810668945 211.0845642089844 -103.4745712280273 210.9637908935547 C -103.5089416503906 210.3532409667969 -103.1537704467773 209.8302459716797 -102.5907669067383 209.6624603271484 C -102.4640502929688 209.6247100830078 -102.3340835571289 209.6055755615234 -102.2044219970703 209.6055755615234 C -101.5878677368164 209.6055755615234 -101.0750732421875 210.0402374267578 -100.985107421875 210.6390991210938 C -100.9500885009766 210.8721466064453 -100.9319458007812 211.1026458740234 -100.9143829345703 211.3255767822266 L -100.9034118652344 211.4631652832031 C -100.8606109619141 211.9854278564453 -100.8195343017578 212.5160369873047 -100.7798004150391 213.0291595458984 L -100.7631378173828 213.2444458007812 C -100.7581176757812 213.3089752197266 -100.7551574707031 213.3736877441406 -100.7522735595703 213.4383850097656 C -100.7509613037109 213.4682159423828 -100.7496337890625 213.4980316162109 -100.748046875 213.5278472900391 L -100.7266540527344 213.9198760986328 C -100.7093048095703 214.2361297607422 -100.6919403076172 214.5523681640625 -100.6766662597656 214.8687286376953 C -100.670654296875 214.9934387207031 -100.6699371337891 215.1151123046875 -100.6692657470703 215.2327728271484 C -100.6689758300781 215.2792358398438 -100.6687164306641 215.3257141113281 -100.6681060791016 215.3721771240234 L -100.631103515625 218.1940155029297 L -100.6311950683594 218.2004089355469 C -100.6354827880859 218.5443878173828 -100.6384887695312 218.8827667236328 -100.6414642333984 219.2172241210938 C -100.6485137939453 220.0087585449219 -100.6551818847656 220.7563781738281 -100.6774139404297 221.5174713134766 C -100.6911163330078 221.986328125 -100.7260284423828 222.4567108154297 -100.7598114013672 222.9115905761719 C -100.7772369384766 223.1462860107422 -100.7952575683594 223.3889617919922 -100.8099060058594 223.6262054443359 C -100.8191833496094 223.7765197753906 -100.8253784179688 223.9323883056641 -100.8313446044922 224.0831146240234 C -100.8369750976562 224.2246398925781 -100.8427734375 224.3710021972656 -100.8512268066406 224.5170440673828 C -100.8696441650391 224.8353424072266 -100.88818359375 225.0804443359375 -100.9113464355469 225.3118133544922 C -100.9347991943359 225.5463714599609 -100.9612274169922 225.7831573486328 -100.9867858886719 226.0121307373047 C -101.0088348388672 226.2095947265625 -101.0308837890625 226.4070434570312 -101.0512390136719 226.6046447753906 C -101.0552368164062 226.6432800292969 -101.0562744140625 226.6910705566406 -101.057373046875 226.7416687011719 C -101.0592956542969 226.8302154541016 -101.0614929199219 226.9305877685547 -101.0791931152344 227.0402984619141 C -101.0984954833984 227.1597595214844 -101.116340637207 227.2794647216797 -101.1341934204102 227.3991851806641 C -101.1965026855469 227.8168792724609 -101.2609176635742 228.2487945556641 -101.3861618041992 228.6793975830078 C -101.4228286743164 228.8054504394531 -101.4555816650391 228.9327850341797 -101.4902496337891 229.0675811767578 C -101.5436630249023 229.2752685546875 -101.5988998413086 229.4900054931641 -101.6707000732422 229.7047729492188 C -102.0033187866211 230.7000122070312 -102.44091796875 231.646728515625 -102.9713439941406 232.5186004638672 C -103.8918380737305 234.0317077636719 -105.1012725830078 235.3485107421875 -106.5660171508789 236.4324188232422 C -107.1865234375 236.8915710449219 -107.8772430419922 237.3060150146484 -108.6776733398438 237.6994323730469 C -108.9897232055664 237.8528289794922 -109.3103408813477 237.9763488769531 -109.6203994750977 238.0957946777344 C -109.6811141967773 238.1191864013672 -109.7417984008789 238.142578125 -109.802360534668 238.1661376953125 C -110.1395034790039 238.2974548339844 -110.4158782958984 238.3946533203125 -110.6720886230469 238.4719848632812 C -110.8705978393555 238.5318756103516 -111.0680770874023 238.5771179199219 -111.2590484619141 238.6208648681641 C -111.3343505859375 238.6381225585938 -111.4096527099609 238.6553649902344 -111.4846878051758 238.6734771728516 C -111.5386199951172 238.6864776611328 -111.5923233032227 238.7001800537109 -111.6460342407227 238.7138671875 C -111.7904281616211 238.7506561279297 -111.9397506713867 238.7887115478516 -112.0982894897461 238.8161468505859 C -112.2405242919922 238.8408050537109 -112.380126953125 238.8578186035156 -112.5151290893555 238.874267578125 C -112.6380996704102 238.8892364501953 -112.7542572021484 238.9033966064453 -112.8672180175781 238.9224548339844 C -113.3777770996094 239.0085754394531 -113.8753890991211 239.0196228027344 -114.2518768310547 239.0196228027344 C -114.4503173828125 239.0196228027344 -114.6499328613281 239.0160980224609 -114.8429641723633 239.0126800537109 C -115.0316314697266 239.0093536376953 -115.2267303466797 239.0059051513672 -115.4162979125977 239.0059051513672 L -115.4927368164062 239.0060882568359 C -115.6302871704102 239.0060882568359 -115.7537689208984 238.9850769042969 -115.8627090454102 238.9665374755859 C -115.9009475708008 238.9600372314453 -115.9391708374023 238.9534301757812 -115.9774017333984 238.9483184814453 C -115.9969100952148 238.9456939697266 -116.0159606933594 238.942626953125 -116.0349807739258 238.9394683837891 C -116.0451202392578 238.9378051757812 -116.0552139282227 238.9358215332031 -116.0653991699219 238.9347686767578 C -116.5803985595703 238.8950805664062 -117.0852890014648 238.80859375 -117.5649490356445 238.6778259277344 C -117.7080688476562 238.6388092041016 -117.8516616821289 238.6040802001953 -118.0036773681641 238.5673065185547 C -118.210578918457 238.5172729492188 -118.4245300292969 238.4655151367188 -118.6380386352539 238.40185546875 C -118.9587707519531 238.3062133789062 -119.2689514160156 238.1935424804688 -119.5599594116211 238.0669708251953 C -119.9705429077148 237.8883819580078 -120.4467926025391 237.677734375 -120.9032897949219 237.4373474121094 C -122.0449371337891 236.8361358642578 -123.07958984375 236.0796966552734 -123.9784927368164 235.1890411376953 C -124.48828125 234.6839141845703 -124.934440612793 234.1780700683594 -125.3424606323242 233.642578125 C -125.9449691772461 232.8519439697266 -126.4687423706055 231.9704132080078 -126.8992309570312 231.0224761962891 C -127.2240524291992 230.3071594238281 -127.4580383300781 229.6415252685547 -127.6145401000977 228.9875030517578 C -127.6337509155273 228.9072265625 -127.653190612793 228.8269805908203 -127.6726379394531 228.7467346191406 C -127.7549819946289 228.4068603515625 -127.8401336669922 228.0554351806641 -127.9074630737305 227.7002563476562 C -127.9524612426758 227.4629974365234 -127.9745330810547 227.2292938232422 -127.9958801269531 227.0032958984375 C -128.0036315917969 226.9210662841797 -128.0113830566406 226.8388519287109 -128.0202941894531 226.7568664550781 C -128.0502014160156 226.4812622070312 -128.0789794921875 226.2055358886719 -128.1077880859375 225.9298248291016 L -128.1459350585938 225.5661468505859 C -128.1483306884766 225.5453491210938 -128.1505432128906 225.5245666503906 -128.1519775390625 225.5037078857422 C -128.1875915527344 224.9940185546875 -128.2231597900391 224.4839019775391 -128.2586364746094 223.9738006591797 C -128.2663269042969 223.863037109375 -128.2748107910156 223.7523040771484 -128.2832946777344 223.6415863037109 C -128.3024291992188 223.3918609619141 -128.3222198486328 223.1336364746094 -128.3329162597656 222.8749084472656 C -128.3673706054688 222.0411376953125 -128.3968505859375 221.2029266357422 -128.4205322265625 220.3835144042969 C -128.4702758789062 218.6630096435547 -128.4441223144531 217.0118865966797 -128.40478515625 215.0321350097656 C -128.3950500488281 214.5412292480469 -128.3581695556641 214.0496673583984 -128.322509765625 213.5742950439453 C -128.3053894042969 213.3461456298828 -128.2877197265625 213.1102447509766 -128.2734832763672 212.8797912597656 C -128.2696075439453 212.8170318603516 -128.268310546875 212.7507781982422 -128.2669067382812 212.6806182861328 C -128.2650299072266 212.5859680175781 -128.2630920410156 212.4880981445312 -128.2547302246094 212.3846740722656 C -128.2283325195312 212.0588836669922 -128.199951171875 211.7332305908203 -128.1715698242188 211.4075927734375 C -128.1522216796875 211.1853637695312 -128.1328430175781 210.963134765625 -128.1141204833984 210.7408752441406 C -128.1106414794922 210.6996765136719 -128.1090698242188 210.6534271240234 -128.107421875 210.6044464111328 C -128.1054229736328 210.5452880859375 -128.1031494140625 210.4782562255859 -128.0969696044922 210.4086151123047 C -128.0850067138672 210.2738342285156 -128.0694885253906 210.1405487060547 -128.0544738769531 210.0116577148438 L -128.0431518554688 209.9137725830078 C -128.0389709472656 209.8772735595703 -128.0329895019531 209.8460845947266 -128.0286560058594 209.8233337402344 C -128.0275573730469 209.8175659179688 -128.0263519287109 209.8118286132812 -128.0254211425781 209.8060455322266 C -128.0139770507812 209.6806640625 -128.0032196044922 209.5552062988281 -127.9924621582031 209.4297485351562 C -127.9709777832031 209.1793060302734 -127.9487838745117 208.9203338623047 -127.9211502075195 208.6635284423828 C -127.8673095703125 208.1633758544922 -127.8053894042969 207.6673889160156 -127.7519226074219 207.2481689453125 C -127.7008590698242 206.8477783203125 -127.6443099975586 206.4521026611328 -127.5896224975586 206.0694580078125 C -127.5372467041016 205.7028350830078 -127.4842300415039 205.3463897705078 -127.4320220947266 205.0100708007812 C -127.3758773803711 204.6482238769531 -127.3235931396484 204.3271942138672 -127.2721786499023 204.0286560058594 C -127.2626800537109 203.9734497070312 -127.2533721923828 203.9181365966797 -127.2440719604492 203.8628082275391 C -127.204719543457 203.6289367675781 -127.1640396118164 203.3871154785156 -127.1071701049805 203.1450042724609 C -126.9401779174805 202.4340057373047 -126.7060623168945 201.8078155517578 -126.3914413452148 201.2306976318359 C -126.0033111572266 200.5186920166016 -125.5160827636719 199.8909759521484 -124.9432830810547 199.3649749755859 C -124.4279632568359 198.8917083740234 -123.8374099731445 198.4874420166016 -123.1880569458008 198.1633911132812 C -122.7614288330078 197.9505157470703 -122.3012924194336 197.7807769775391 -121.8204040527344 197.6588745117188 C -121.4314804077148 197.5602722167969 -120.9762573242188 197.4549865722656 -120.4952697753906 197.4540405273438 C -118.1434555053711 197.4493865966797 -115.7910919189453 197.4489440917969 -113.4392318725586 197.4489288330078 Z" stroke="none" fill="#191919"/>
    </g>
    <path id="Path_15090" data-name="Path 15090" d="M424.657,419.916c0,1.108.018,2.217-.006,3.325a2.646,2.646,0,0,1-1.09,2.108,2.541,2.541,0,0,1-1.191.525,2.96,2.96,0,0,1-1.117-.037,2.75,2.75,0,0,1-1.425-.848,2.63,2.63,0,0,1-.556-.964,3.143,3.143,0,0,1-.15-1.028q.007-2.917,0-5.833,0-.253,0-.505a2.672,2.672,0,0,1,.362-1.328,2.765,2.765,0,0,1,4.658-.235,2.62,2.62,0,0,1,.447,1.017,3.951,3.951,0,0,1,.064.829q0,1.487,0,2.975Z" transform="translate(-408.485 -406.725)" fill="#191919"/>
    <path id="Path_15091" data-name="Path 15091" d="M415.792,1851.866a2.886,2.886,0,0,1,.084,5.77,2.886,2.886,0,1,1-.084-5.77Z" transform="translate(-402.382 -1819.702)" fill="#191919"/>
  </g>
</svg>
